<svg width="18" height="19" viewBox="0 0 18 19" fill="none" xmlns="http://www.w3.org/2000/svg">
<path d="M15.5851 10.2988C15.6229 10.4171 15.7062 10.5155 15.8166 10.5724C15.927 10.6294 16.0554 10.6402 16.1738 10.6025C16.4176 10.5238 16.5563 10.2613 16.4776 10.0138L16.4772 10.0126C16.4438 9.9125 14.5654 4.25 8.99968 4.25C3.43505 4.25 1.5563 9.9125 1.5233 10.013L1.52293 10.0138C1.44418 10.2613 1.57918 10.5238 1.82668 10.6025C2.07418 10.6813 2.33668 10.5463 2.41543 10.2988C2.48255 10.0888 4.1063 5.1875 9.00005 5.1875C13.8938 5.1875 15.5176 10.0888 15.5851 10.2988ZM9.00005 14C9.89516 14 10.7536 13.6444 11.3865 13.0115C12.0195 12.3786 12.3751 11.5201 12.3751 10.625C12.3751 9.72989 12.0195 8.87145 11.3865 8.23852C10.7536 7.60558 9.89516 7.25 9.00005 7.25C8.10495 7.25 7.2465 7.60558 6.61357 8.23852C5.98063 8.87145 5.62505 9.72989 5.62505 10.625C5.62505 11.5201 5.98063 12.3786 6.61357 13.0115C7.2465 13.6444 8.10495 14 9.00005 14Z" fill="black"/>
</svg>
