<svg width="22" height="23" viewBox="0 0 22 23" fill="none" xmlns="http://www.w3.org/2000/svg">
<path d="M20 4.5C20.2867 4.50032 20.5625 4.61011 20.771 4.80695C20.9795 5.0038 21.105 5.27282 21.1218 5.55907C21.1386 5.84532 21.0455 6.12718 20.8614 6.34706C20.6774 6.56695 20.4163 6.70826 20.1316 6.74213L20 6.75H19.9088L18.875 19.125C18.875 19.9859 18.5461 20.8142 17.9555 21.4405C17.365 22.0669 16.5574 22.4439 15.698 22.4944L15.5 22.5H6.49997C4.70222 22.5 3.23297 21.0949 3.13397 19.4063L3.12835 19.2184L2.08997 6.75H1.99997C1.71323 6.74968 1.43744 6.63989 1.22894 6.44305C1.02043 6.24621 0.89496 5.97718 0.878156 5.69093C0.861351 5.40468 0.954483 5.12282 1.13852 4.90294C1.32256 4.68305 1.58362 4.54174 1.86835 4.50788L1.99997 4.5H20ZM13.25 0C13.8467 0 14.419 0.237053 14.841 0.65901C15.2629 1.08097 15.5 1.65326 15.5 2.25C15.4997 2.53674 15.3899 2.81254 15.193 3.02104C14.9962 3.22954 14.7272 3.35501 14.4409 3.37182C14.1547 3.38862 13.8728 3.29549 13.6529 3.11145C13.433 2.92741 13.2917 2.66636 13.2578 2.38163L13.25 2.25H8.74997L8.7421 2.38163C8.70823 2.66636 8.56692 2.92741 8.34704 3.11145C8.12715 3.29549 7.84529 3.38862 7.55904 3.37182C7.2728 3.35501 7.00377 3.22954 6.80693 3.02104C6.61009 2.81254 6.50029 2.53674 6.49997 2.25C6.49979 1.68235 6.71418 1.13561 7.10016 0.719383C7.48614 0.303154 8.01517 0.0481987 8.58122 0.00562513L8.74997 0H13.25Z" fill="#FF5D5D"/>
</svg>
