<svg width="18" height="18" viewBox="0 0 18 18" fill="none" xmlns="http://www.w3.org/2000/svg">
<path d="M11.7255 12.6344L16.9013 17.8115C16.9611 17.8713 17.032 17.9187 17.1101 17.951C17.1882 17.9834 17.2719 18 17.3564 18C17.4409 18 17.5246 17.9834 17.6027 17.951C17.6808 17.9187 17.7517 17.8713 17.8115 17.8115C17.8713 17.7517 17.9187 17.6808 17.951 17.6027C17.9834 17.5246 18 17.4409 18 17.3564C18 17.2719 17.9834 17.1882 17.951 17.1101C17.9187 17.032 17.8713 16.9611 17.8115 16.9013L1.09871 0.188509C1.03895 0.128745 0.967997 0.0813364 0.889911 0.048992C0.811824 0.0166475 0.728131 6.29725e-10 0.643611 0C0.559091 -6.29724e-10 0.475398 0.0166475 0.397312 0.048992C0.319225 0.0813364 0.248274 0.128745 0.188509 0.188509C0.128745 0.248274 0.0813364 0.319225 0.048992 0.397312C0.0166475 0.475398 -6.29725e-10 0.559091 0 0.643611C6.29725e-10 0.728131 0.0166475 0.811824 0.048992 0.889911C0.0813364 0.967997 0.128745 1.03895 0.188509 1.09871L4.34099 5.2512C3.77595 5.65172 3.26743 6.12651 2.82913 6.66278C2.2087 7.42406 1.72303 8.28583 1.39311 9.21084C1.36612 9.28926 1.33269 9.39725 1.33269 9.39725L1.30955 9.47696C1.30955 9.47696 1.21185 10.1159 1.76594 10.2625C1.93062 10.306 2.10584 10.2824 2.25312 10.1968C2.4004 10.1112 2.5077 9.97069 2.55144 9.80607L2.55272 9.80221L2.56301 9.77007L2.60801 9.62994C2.88821 8.84897 3.29902 8.12126 3.8229 7.47785C4.23561 6.9725 4.72287 6.53293 5.26791 6.17426L7.29658 8.20293C6.8872 8.45952 6.54094 8.8051 6.28354 9.21397C6.02614 9.62285 5.86424 10.0845 5.80987 10.5646C5.75551 11.0446 5.81008 11.5308 5.96952 11.9869C6.12897 12.443 6.38918 12.8572 6.73082 13.1989C7.07246 13.5405 7.48672 13.8007 7.9428 13.9602C8.39888 14.1196 8.88504 14.1742 9.36511 14.1198C9.84519 14.0654 10.3068 13.9035 10.7157 13.6461C11.1246 13.3888 11.4702 13.0425 11.7268 12.6331M6.84148 4.11216L7.93938 5.21006C8.27278 5.16549 8.62632 5.14321 9 5.14321C11.6278 5.14321 13.2245 6.31567 14.1784 7.47914C14.7023 8.12255 15.1131 8.85026 15.3933 9.63123C15.4147 9.6938 15.4297 9.74051 15.4383 9.77136L15.4486 9.8035V9.80736L15.4498 9.80864C15.4974 9.96908 15.6057 10.1046 15.7516 10.1865C15.8976 10.2684 16.0697 10.2901 16.2314 10.2471C16.3931 10.2041 16.5317 10.0997 16.6176 9.95613C16.7036 9.81255 16.7302 9.64111 16.6917 9.47824V9.47439L16.6905 9.46924L16.6853 9.45253C16.6635 9.37118 16.6378 9.29095 16.6082 9.21212C16.2783 8.28712 15.7926 7.42535 15.1722 6.66407C14.0203 5.25762 12.0803 3.85761 9.00257 3.85761C8.20807 3.85761 7.48942 3.94888 6.84148 4.11216Z" fill="black"/>
</svg>
