<svg width="16" height="18" viewBox="0 0 16 18" fill="none" xmlns="http://www.w3.org/2000/svg">
<path d="M10.7634 1.73629C10.0617 0.939038 9.0817 0.5 8 0.5C6.91253 0.5 5.92926 0.936381 5.23085 1.7287C4.52486 2.52974 4.18087 3.61842 4.26164 4.79399C4.42173 7.11326 6.09873 8.99995 8 8.99995C9.90127 8.99995 11.5754 7.11364 11.738 4.79475C11.8198 3.6298 11.4737 2.5434 10.7634 1.73629ZM14.346 17.4999H1.65402C1.48789 17.5022 1.32338 17.4654 1.17243 17.3924C1.02149 17.3193 0.887925 17.2118 0.781449 17.0776C0.54708 16.7827 0.452611 16.3801 0.522561 15.9729C0.82688 14.1963 1.77661 12.7039 3.26936 11.6562C4.59553 10.7261 6.27541 10.2142 8 10.2142C9.72459 10.2142 11.4045 10.7265 12.7306 11.6562C14.2234 12.7035 15.1731 14.1959 15.4774 15.9726C15.5474 16.3797 15.4529 16.7823 15.2186 17.0772C15.1121 17.2115 14.9786 17.3191 14.8276 17.3922C14.6767 17.4653 14.5121 17.5021 14.346 17.4999Z" fill="#1A306D"/>
</svg>
