<svg width="16" height="19" viewBox="0 0 16 19" fill="none" xmlns="http://www.w3.org/2000/svg">
<path d="M10.9476 1.80901C10.1992 0.964863 9.15382 0.5 8 0.5C6.84003 0.5 5.79121 0.962051 5.04624 1.80097C4.29318 2.64914 3.92627 3.80186 4.01242 5.04658C4.18318 7.50228 5.97198 9.49995 8 9.49995C10.028 9.49995 11.8137 7.50268 11.9872 5.04738C12.0745 3.81391 11.7053 2.6636 10.9476 1.80901ZM14.769 18.4999H1.23096C1.05375 18.5023 0.878268 18.4634 0.717263 18.3861C0.556259 18.3087 0.413787 18.1948 0.300212 18.0527C0.0502186 17.7405 -0.0505479 17.3142 0.0240655 16.8831C0.348672 15.002 1.36172 13.4218 2.95399 12.3124C4.36856 11.3277 6.16044 10.7857 8 10.7857C9.83957 10.7857 11.6314 11.3281 13.046 12.3124C14.6383 13.4214 15.6513 15.0016 15.9759 16.8827C16.0505 17.3138 15.9498 17.7401 15.6998 18.0523C15.5863 18.1945 15.4438 18.3084 15.2828 18.3859C15.1218 18.4633 14.9463 18.5023 14.769 18.4999Z" fill="#1A306D"/>
</svg>
